<?xml version="1.0" encoding="UTF-8" standalone="yes"?>
<!DOCTYPE svg PUBLIC "-//W3C//DTD SVG 1.1//EN" "http://www.w3.org/Graphics/SVG/1.1/DTD/svg11.dtd">

<svg width="120" height="64" viewBox="0 0 120 64" xmlns="http://www.w3.org/2000/svg" xmlns:xlink="http://www.w3.org/1999/xlink" version="1.1" baseProfile="full">
    <defs>
        <linearGradient id="1055531534286885291186480" x1="50.000000%" x2="50.000000%" y1="1.531939%" y2="98.468063%">
            <stop offset="0%" style="stop-color:#ff9b00;stop-opacity:1.000000"></stop>
            <stop offset="48%" style="stop-color:#ff5000;stop-opacity:1.000000"></stop>
            <stop offset="100%" style="stop-color:#ff3200;stop-opacity:1.000000"></stop>
        </linearGradient>
        <linearGradient id="1055531534300485291158032" x1="8.392467%" x2="99.571938%" y1="98.884346%" y2="1.115654%">
            <stop offset="0%" style="stop-color:#151b25;stop-opacity:1.000000"></stop>
            <stop offset="50%" style="stop-color:#273345;stop-opacity:1.000000"></stop>
            <stop offset="100%" style="stop-color:#151b25;stop-opacity:1.000000"></stop>
        </linearGradient>
    </defs>
    <g transform="scale(0.324324,-0.324324) translate(0,-200)">
        <path d="M 216.118827 29.166435 C 216.533039 29.580648 216.947252 29.994860 217.361464 29.994860 C 219.432525 24.195889 220.260949 17.568494 219.432525 11.355311 C 219.018313 8.041613 221.503586 4.727916 224.817283 4.313703 C 225.231495 4.313703 225.231495 4.313703 225.645708 4.313703 C 228.545193 4.313703 231.444678 6.798977 231.858891 9.698462 C 233.101527 20.467979 231.030466 31.651709 226.059920 41.178588 C 220.675162 50.705469 212.805129 58.575500 202.864037 63.546048 C 199.964552 65.202896 196.236642 63.960260 194.579793 60.646562 C 192.922944 57.747077 194.165581 54.019167 197.479279 52.362318 C 203.278249 49.462833 208.248795 45.320711 211.976706 40.350164 C 211.148281 40.350164 210.319857 39.935952 209.905645 39.521740 C 181.739234 22.124825 149.430670 13.012153 116.293694 13.012153 C 83.156718 13.012153 50.848166 22.124822 23.095949 39.521735 C 22.267525 39.935947 21.853312 40.350159 21.024888 40.350159 C 24.752798 45.320706 29.723344 49.462828 35.522315 52.362313 C 38.421800 54.019162 39.664437 57.747071 38.421800 60.646557 C 36.764951 63.546042 33.037042 64.788679 30.137556 63.546042 C 20.196463 58.575496 12.326431 50.705465 7.355885 41.178583 C 1.971127 31.651703 -0.099934 20.467973 1.556915 9.698457 C 1.971127 6.384759 4.456400 4.313698 7.770098 4.313698 C 8.184310 4.313698 8.184310 4.313698 8.598522 4.313698 C 11.912220 4.727910 14.397493 7.627396 13.983281 11.355306 C 13.154856 17.568489 13.983281 24.195884 16.054342 29.994855 C 16.468554 29.580643 16.882766 29.166430 17.296978 29.166430 C 47.120256 10.526881 81.914083 1.000000 117.122120 1.000000 C 152.330156 1.000000 186.295562 10.526887 216.118827 29.166435 Z" transform="scale(1.000000,1.000000) translate(68.394419,17.166772)" fill="url(#1055531534286885291186480)" opacity="1.000000"></path>
        <path d="M 14.754054 37.819777 L 19.202967 49.116701 L 42.008995 49.116701 L 46.718147 37.819777 L 66.185677 37.819777 L 48.680732 79.631252 L 48.174036 80.740578 L 47.005045 82.736351 L 45.628587 84.434888 L 44.044846 85.836190 L 43.175084 86.425401 L 42.244933 86.942978 L 40.176076 87.771028 L 37.829389 88.323062 L 35.205052 88.599079 L 33.788698 88.633536 L 32.093788 88.596540 L 29.052162 88.300031 L 26.474977 87.706830 L 24.362233 86.817120 L 23.479958 86.261097 L 22.678929 85.638517 L 21.215967 84.216722 L 19.937802 82.559170 L 18.844979 80.666224 L 18.368025 79.631252 L 1.000000 37.819777 Z M 101.766098 37.275541 L 104.153771 37.313081 L 109.128059 37.499510 L 111.714674 37.648581 L 113.088411 37.750864 L 115.710752 38.076027 L 118.166250 38.562230 L 120.454724 39.209473 L 121.536485 39.593394 L 122.568375 40.027912 L 124.457512 41.080113 L 126.113795 42.376594 L 127.537585 43.916993 L 128.162159 44.778956 L 128.720358 45.709107 L 129.613514 47.797188 L 130.209072 50.188487 L 130.506851 52.883188 L 130.544028 54.344155 L 130.509934 55.885642 L 130.237726 58.656147 L 129.693490 61.010270 L 128.876865 62.947829 L 128.366542 63.760464 L 127.794741 64.487865 L 126.486290 65.743542 L 124.958042 66.733358 L 123.209996 67.457675 L 122.253548 67.720091 L 121.247955 67.934992 L 119.107464 68.279016 L 116.793964 68.508244 L 114.307636 68.622858 L 112.999730 68.637185 L 112.241500 68.637185 L 109.645273 68.637185 L 107.807276 68.637185 L 105.623443 68.637185 L 100.260337 68.637185 L 97.081066 68.637185 L 95.993320 68.664388 L 94.124856 68.881828 L 93.343957 69.071884 L 92.665340 69.325051 L 91.616041 70.046830 L 91.245177 70.515260 L 90.965534 71.065480 L 90.645992 72.440668 L 90.606095 73.265817 L 90.667755 74.301696 L 91.161393 76.007306 L 91.593372 76.677037 L 92.149940 77.240133 L 93.640286 78.091760 L 94.574245 78.380471 L 95.634970 78.593015 L 98.139977 78.836026 L 99.584441 78.866493 L 109.466279 78.866493 L 111.886051 78.844187 L 114.723657 78.777449 L 116.251179 78.722862 L 119.331796 78.553480 L 120.884708 78.438685 L 122.395547 78.299226 L 125.140663 77.933077 L 126.374759 77.706206 L 127.463775 77.446149 L 129.047879 76.812144 L 129.542968 76.438379 L 129.542968 76.813958 L 129.542968 77.584882 L 129.542968 78.572341 L 129.542968 79.597883 L 129.542968 80.482334 L 129.542968 81.046337 L 129.511413 81.696844 L 129.258247 82.913350 L 128.752276 84.017961 L 127.993139 85.010316 L 127.518724 85.464601 L 126.986276 85.881165 L 125.763242 86.573202 L 124.329297 87.076634 L 122.684439 87.391641 L 121.782942 87.478509 L 120.664185 87.705923 L 117.751500 88.071165 L 115.957390 88.209173 L 114.019469 88.322518 L 109.956472 88.490268 L 107.831215 88.544674 L 103.667386 88.611411 L 99.801700 88.633536 L 98.273270 88.626463 L 95.319600 88.569156 L 92.503212 88.454542 L 89.824470 88.282439 L 88.536513 88.175079 L 87.287727 88.041967 L 84.921635 87.666026 L 82.730910 87.143190 L 80.715552 86.473822 L 79.773794 86.083916 L 78.880094 85.649036 L 77.251377 84.617509 L 75.833390 83.370718 L 74.626497 81.908663 L 74.102210 81.096934 L 73.635411 80.219012 L 72.888425 78.227773 L 72.390615 75.922615 L 72.141620 73.303720 L 72.110427 71.876484 L 72.137086 70.673036 L 72.350174 68.470523 L 72.776168 66.540763 L 73.415251 64.883755 L 73.814768 64.157443 L 74.258535 63.488800 L 75.252885 62.292243 L 76.389233 61.283567 L 77.667760 60.462770 L 78.360341 60.122736 L 79.081394 59.820968 L 80.586974 59.307199 L 82.177788 58.912578 L 83.853475 58.637106 L 84.723237 58.544072 L 86.489055 58.407515 L 90.050797 58.251371 L 91.846720 58.231785 L 95.277889 58.231785 L 98.011943 58.231785 L 100.199585 58.231785 L 101.992062 58.231785 L 103.502901 58.231785 L 104.846171 58.231785 L 105.665154 58.216552 L 107.140447 58.094321 L 108.398482 57.849859 L 109.439439 57.483167 L 109.878672 57.253938 L 110.264769 56.980279 L 110.882815 56.258138 L 111.294664 55.302597 L 111.500679 54.114020 L 111.526431 53.432139 L 111.460419 52.335869 L 110.932505 50.516008 L 110.470603 49.792597 L 109.880304 49.176002 L 108.324853 48.211757 L 107.359882 47.864106 L 106.273406 47.594799 L 103.747906 47.257667 L 102.308520 47.189842 L 100.838486 47.155929 L 99.001759 47.118933 L 97.146352 47.090098 L 95.619736 47.080306 L 91.821150 47.116394 L 87.492654 47.224117 L 85.217782 47.323135 L 80.798792 47.684206 L 78.654674 47.946259 L 77.616800 48.101495 L 75.680330 48.476711 L 73.929563 48.937888 L 72.364682 49.485025 L 71.651790 49.790784 L 71.651790 43.913003 L 71.675184 43.410660 L 71.861613 42.481596 L 72.234290 41.653365 L 72.793578 40.926145 L 73.143042 40.600257 L 73.965652 40.008507 L 76.072956 39.031023 L 77.357649 38.645289 L 78.779625 38.320670 L 81.986281 37.830839 L 83.770960 37.665810 L 85.655564 37.539770 L 89.661798 37.363497 L 91.783428 37.313263 L 96.915855 37.266111 Z M 159.011485 37.819777 L 159.011485 88.195572 L 146.961590 88.195572 L 145.621766 88.154949 L 143.553453 87.829786 L 142.824964 87.545246 L 142.258967 87.181636 L 141.492032 86.223013 L 141.290913 85.627999 L 141.168138 84.959719 L 141.027772 83.414968 L 141.010181 82.538496 L 141.010181 71.359451 L 141.010181 60.180043 L 141.010181 49.000092 L 141.010181 37.819777 Z M 184.626646 37.819777 L 184.626646 73.394214 L 185.153835 70.728348 L 209.629747 37.819777 L 225.064202 37.819777 L 226.050029 37.833016 L 227.780847 37.939106 L 229.191035 38.151287 L 230.280594 38.469559 L 230.704957 38.668502 L 231.065302 38.923844 L 231.641818 39.694044 L 232.026283 40.810262 L 232.218516 42.272136 L 232.242454 43.132829 L 232.242454 81.833583 L 232.242454 82.988792 L 232.242454 84.305222 L 232.265486 85.641600 L 232.334943 86.856655 L 232.450283 87.768490 L 232.612048 88.195572 L 219.425987 88.195572 L 219.425987 53.478383 L 218.864886 56.041604 L 194.956785 88.195572 L 177.973770 88.195572 L 176.995741 88.177256 L 175.324226 88.030905 L 174.031553 87.738022 L 173.118086 87.298789 L 172.803622 87.024223 L 172.553176 86.690355 L 172.152389 85.776163 L 171.885259 84.533180 L 171.751784 82.961589 L 171.735100 82.052656 L 171.735100 37.819777 Z M 22.011012 55.985204 L 27.984546 71.347663 L 28.338544 72.163745 L 28.757103 72.927959 L 29.031306 73.250946 L 29.871870 73.620178 L 30.438412 73.666241 L 30.958709 73.621266 L 31.739427 73.260558 L 31.999666 72.945007 L 32.394831 72.185144 L 32.712377 71.347663 L 38.672310 55.985204 Z M 20.306127 1.028472 L 22.319491 1.113707 L 23.311120 1.184253 L 25.291115 1.407678 L 26.279480 1.560376 L 27.331681 1.735380 L 28.844696 2.285419 L 29.305328 2.660272 L 29.621968 3.097148 L 29.984127 4.143545 L 30.029283 4.753067 L 30.029283 7.224706 L 28.053459 6.809774 L 26.177198 6.448340 L 24.391249 6.153282 L 22.686183 5.937474 L 21.072518 5.805087 L 19.560954 5.761019 L 17.901226 5.796926 L 15.102974 6.083280 L 13.964631 6.333908 L 13.457572 6.493678 L 12.554624 6.913870 L 11.800021 7.467717 L 11.194126 8.155220 L 10.946762 8.549115 L 10.732223 8.983815 L 10.388925 9.997206 L 10.160241 11.203012 L 10.045808 12.600868 L 10.031482 13.371975 L 10.045627 14.173004 L 10.158428 15.618193 L 10.384391 16.853922 L 10.722975 17.880552 L 10.934793 18.315251 L 11.177079 18.706608 L 11.761574 19.386494 L 12.479000 19.929279 L 13.329176 20.334781 L 13.803954 20.486028 L 14.860144 20.720697 L 17.411940 20.988915 L 18.907545 21.022465 L 20.560019 20.973863 L 22.450426 20.828057 L 23.455476 20.719790 L 25.468295 20.437063 L 26.476065 20.262603 L 27.454093 20.064930 L 29.230793 19.595955 L 30.029283 19.324835 L 30.029283 21.994146 L 29.986303 22.655716 L 29.642461 23.742555 L 29.341599 24.167824 L 28.903635 24.523273 L 27.463161 25.050824 L 26.460831 25.223108 L 24.455810 25.478632 L 22.536931 25.651641 L 20.605176 25.750659 L 18.561345 25.783665 L 17.345747 25.774779 L 15.064890 25.704233 L 12.984971 25.563323 L 11.105626 25.352049 L 10.241305 25.219844 L 9.423048 25.066239 L 7.913841 24.683588 L 6.573654 24.199742 L 5.403031 23.615065 L 4.881102 23.284824 L 4.398163 22.925748 L 3.539827 22.110392 L 2.824758 21.165552 L 2.252957 20.091044 L 2.020827 19.505279 L 1.819890 18.883244 L 1.498535 17.519119 L 1.284178 15.994860 L 1.177180 14.310468 L 1.163760 13.408245 L 1.176274 12.498224 L 1.276924 10.800412 L 1.477861 9.265997 L 1.779630 7.894618 L 1.968054 7.270044 L 2.186582 6.682465 L 2.727372 5.605963 L 3.407077 4.660941 L 4.225335 3.847761 L 4.686511 3.490499 L 5.186860 3.162253 L 6.318493 2.580659 L 7.624586 2.098990 L 9.105320 1.717063 L 9.911246 1.563640 L 10.765411 1.431616 L 12.633512 1.220161 L 14.714519 1.079251 L 17.008252 1.008705 L 18.234913 1.000000 Z M 72.860134 1.276924 L 75.002982 6.717829 L 85.987075 6.717829 L 88.255237 1.276924 L 97.631467 1.276924 L 89.200440 21.414728 L 88.956341 21.949171 L 88.393426 22.910333 L 87.730406 23.728410 L 86.967642 24.403218 L 86.548720 24.687033 L 86.100782 24.936391 L 85.104256 25.335183 L 83.974074 25.601044 L 82.710055 25.733975 L 82.027992 25.750659 L 81.211548 25.732705 L 79.746591 25.589982 L 78.505422 25.304172 L 77.487859 24.875820 L 77.062953 24.607964 L 76.313609 23.979944 L 75.082596 22.383326 L 74.600745 21.414728 L 66.235730 1.276924 Z M 43.061921 1.276924 L 43.061921 9.397114 L 44.709861 9.413980 L 46.307386 9.431753 L 47.747135 9.445354 L 48.921204 9.449888 L 49.702103 9.449888 L 49.962523 9.449888 L 51.703134 9.449888 L 52.532273 9.423048 L 53.784867 9.207965 L 54.208504 9.019722 L 54.520066 8.729379 L 54.876059 7.696582 L 54.920490 6.954492 L 54.920490 3.489774 L 54.967822 2.856676 L 55.345396 1.956629 L 55.675818 1.689317 L 56.090569 1.508872 L 57.142951 1.302676 L 57.780401 1.276924 L 64.257186 1.276924 L 64.165785 1.429803 L 63.996765 1.782894 L 63.840984 2.366120 L 63.789118 3.209586 L 63.789118 7.888996 L 63.763366 8.515021 L 63.557351 9.726449 L 63.377087 10.311488 L 63.071510 10.840672 L 61.863347 11.603617 L 60.960761 11.837379 L 60.618007 11.864582 L 60.204889 11.873649 L 59.778713 11.873649 L 59.396424 11.873649 L 59.396424 12.072410 L 60.129809 12.115209 L 60.811872 12.243788 L 61.390201 12.439828 L 61.812025 12.685560 L 62.279367 13.077641 L 63.004954 14.108624 L 63.263017 14.747525 L 63.458151 15.526429 L 63.681395 17.678708 L 63.709142 19.051901 L 63.687017 19.839691 L 63.510381 21.245165 L 63.156745 22.424493 L 62.626474 23.377676 L 62.294964 23.769395 L 61.919022 24.114144 L 61.032032 24.692292 L 59.965505 25.121733 L 58.719076 25.402283 L 58.028309 25.486974 L 57.138962 25.535032 L 55.842299 25.574204 L 54.214670 25.604671 L 52.332424 25.626978 L 50.275536 25.636045 L 48.124708 25.626978 L 45.964994 25.611381 L 43.881992 25.600682 L 41.949149 25.589982 L 40.239730 25.574204 L 38.843687 25.556613 L 37.850969 25.539566 L 36.887993 25.479902 L 35.497391 25.052094 L 35.069402 24.683769 L 34.773073 24.220960 L 34.434309 23.036373 L 34.392054 22.314775 L 34.392054 1.276924 Z M 211.416783 1.276924 L 211.416783 9.397114 L 213.064724 9.413980 L 214.662248 9.431753 L 216.101997 9.445354 L 217.276066 9.449888 L 218.057147 9.449888 L 218.317386 9.449888 L 220.057997 9.449888 L 220.887135 9.423048 L 222.139730 9.207965 L 222.563367 9.019722 L 222.874928 8.729379 L 223.230921 7.696582 L 223.275352 6.954492 L 223.275352 3.489774 L 223.322685 2.856676 L 223.700259 1.956629 L 224.030681 1.689317 L 224.445613 1.508872 L 225.497814 1.302676 L 226.135264 1.276924 L 232.612048 1.276924 L 232.520647 1.429803 L 232.351628 1.782894 L 232.196028 2.366120 L 232.143980 3.209586 L 232.143980 7.888996 L 232.118228 8.515021 L 231.912213 9.726449 L 231.731950 10.311488 L 231.426373 10.840672 L 230.218210 11.603617 L 229.315624 11.837379 L 228.972869 11.864582 L 228.559751 11.873649 L 228.133575 11.873649 L 227.751286 11.873649 L 227.751286 12.072410 L 228.484671 12.115209 L 229.166734 12.243788 L 229.745064 12.439828 L 230.166887 12.685560 L 230.634230 13.077641 L 231.359817 14.108624 L 231.617880 14.747525 L 231.813014 15.526429 L 232.036258 17.678708 L 232.064004 19.051901 L 232.042061 19.839691 L 231.865243 21.245165 L 231.511608 22.424493 L 230.981336 23.377676 L 230.649826 23.769395 L 230.273884 24.114144 L 229.386895 24.692292 L 228.320367 25.121733 L 227.073939 25.402283 L 226.383353 25.486974 L 225.494005 25.535032 L 224.197161 25.574204 L 222.569532 25.604671 L 220.687286 25.626978 L 218.630398 25.636045 L 216.479571 25.626978 L 214.319857 25.611381 L 212.236854 25.600682 L 210.304011 25.589982 L 208.594593 25.574204 L 207.198550 25.556613 L 206.205832 25.539566 L 205.243037 25.479902 L 203.852253 25.052094 L 203.424264 24.683769 L 203.127936 24.220960 L 202.789171 23.036373 L 202.746916 22.314775 L 202.746916 1.276924 Z M 116.684428 1.276924 L 119.485582 14.257876 L 119.927354 16.895995 L 120.497704 14.274379 L 123.673893 1.276924 L 129.601908 1.276924 L 130.558536 1.302131 L 132.205570 1.504338 L 132.895975 1.681156 L 133.506766 1.916369 L 134.515624 2.585737 L 134.913872 3.019892 L 135.243387 3.524593 L 135.701844 4.757964 L 135.830785 5.486634 L 138.649348 25.539566 L 132.717162 25.539566 L 130.825848 9.325481 L 130.712141 8.863760 L 130.542759 8.531887 L 130.277079 8.331494 L 129.874660 8.264756 L 128.963188 8.264756 L 124.532592 25.539566 L 116.228511 25.539566 L 112.339430 8.264756 L 111.550007 8.264756 L 111.023906 8.346364 L 110.690401 8.590826 L 110.473868 9.052547 L 110.298863 9.786113 L 107.714424 25.503296 L 99.717009 25.539566 L 103.116441 5.585470 L 103.246288 4.959989 L 103.663941 3.829626 L 103.951745 3.324925 L 104.293411 2.867194 L 105.141773 2.112772 L 105.648288 1.816263 L 106.212472 1.580325 L 107.521104 1.310655 L 108.265733 1.276924 Z M 167.546245 1.276924 L 167.546245 5.799828 L 151.964169 5.799828 L 151.964169 25.539566 L 146.196831 25.539566 L 145.535624 25.519980 L 144.521326 25.363474 L 144.168234 25.226372 L 143.896751 25.050099 L 143.536406 24.579311 L 143.447363 24.284796 L 143.359588 23.567007 L 143.330391 22.670043 L 143.330391 1.276924 Z M 198.331916 1.276924 L 198.331916 5.799828 L 179.788009 5.799828 L 179.788009 11.457448 L 196.633379 11.457448 L 196.633379 15.944988 L 179.788009 15.944988 L 179.788009 21.016662 L 198.331916 21.016662 L 198.331916 25.539566 L 173.984401 25.539566 L 173.192621 25.506198 L 172.044123 25.238160 L 171.687042 25.003491 L 171.438046 24.663458 L 171.153506 23.551048 L 171.117961 22.778672 L 171.117961 1.276924 Z M 51.055528 13.520320 L 50.024364 13.520320 L 48.769957 13.522496 L 47.411453 13.528662 L 46.052950 13.541357 L 44.798361 13.563119 L 43.763207 13.583068 L 43.061921 13.589596 L 43.061921 20.064023 L 43.159307 20.578336 L 43.450920 20.842021 L 43.768285 20.945935 L 43.942201 20.980392 L 44.618823 20.999434 L 45.582706 21.023372 L 46.746256 21.045134 L 48.022426 21.058010 L 49.331239 21.060005 L 50.592538 21.049668 L 51.710026 21.006869 L 52.587404 20.911297 L 53.165189 20.794507 L 54.062153 20.275479 L 54.381151 19.873241 L 54.622529 19.382323 L 54.898365 18.153305 L 54.933003 17.415204 L 54.872613 16.379144 L 54.390037 14.842735 L 53.967851 14.342386 L 53.466958 13.982766 L 52.355274 13.571643 L 51.744301 13.520320 Z M 219.410391 13.520320 L 218.379227 13.520320 L 217.124819 13.522496 L 215.766316 13.528662 L 214.407812 13.541357 L 213.153405 13.563119 L 212.118069 13.583068 L 211.416783 13.589596 L 211.416783 20.064023 L 211.514169 20.578336 L 211.805782 20.842021 L 212.123147 20.945935 L 212.297063 20.980392 L 212.973685 20.999434 L 213.937568 21.023372 L 215.101119 21.045134 L 216.377289 21.058010 L 217.686283 21.060005 L 218.947401 21.049668 L 220.064888 21.006869 L 220.942266 20.911297 L 221.520052 20.794507 L 222.417016 20.275479 L 222.736013 19.873241 L 222.977392 19.382323 L 223.253227 18.153305 L 223.287865 17.415204 L 223.227475 16.379144 L 222.744899 14.842735 L 222.322713 14.342386 L 221.821821 13.982766 L 220.710136 13.571643 L 220.099164 13.520320 Z M 76.355320 10.026041 L 79.232460 17.425179 L 79.402930 17.818167 L 79.604593 18.186311 L 79.915611 18.452897 L 80.414327 18.541759 L 80.873872 18.455073 L 81.166391 18.194471 L 81.356629 17.828504 L 81.509508 17.425179 L 84.380120 10.026041 Z" transform="scale(1.000000,1.000000) translate(68.193976,93.199692)" fill="url(#1055531534300485291158032)" opacity="1.000000"></path>
    </g>
</svg>